<?xml version="1.0" encoding="UTF-8" standalone="no"?>
<!-- Created with Inkscape (http://www.inkscape.org/) -->

<svg
   width="210mm"
   height="297mm"
   viewBox="0 0 210 297"
   version="1.1"
   id="svg1"
   xml:space="preserve"
   inkscape:version="1.3.2 (091e20e, 2023-11-25)"
   sodipodi:docname="devs.svg"
   xmlns:inkscape="http://www.inkscape.org/namespaces/inkscape"
   xmlns:sodipodi="http://sodipodi.sourceforge.net/DTD/sodipodi-0.dtd"
   xmlns="http://www.w3.org/2000/svg"
   xmlns:svg="http://www.w3.org/2000/svg"><sodipodi:namedview
     id="namedview1"
     pagecolor="#ffffff"
     bordercolor="#000000"
     borderopacity="0.25"
     inkscape:showpageshadow="2"
     inkscape:pageopacity="0.0"
     inkscape:pagecheckerboard="0"
     inkscape:deskcolor="#d1d1d1"
     inkscape:document-units="mm"
     inkscape:zoom="1.1469083"
     inkscape:cx="552.35453"
     inkscape:cy="636.92973"
     inkscape:window-width="1440"
     inkscape:window-height="900"
     inkscape:window-x="0"
     inkscape:window-y="0"
     inkscape:window-maximized="0"
     inkscape:current-layer="layer1" /><defs
     id="defs1" /><g
     inkscape:label="Layer 1"
     inkscape:groupmode="layer"
     id="layer1"><path
       id="path1"
       style="fill:#000000;fill-opacity:0;stroke:#000000;stroke-width:0.305797;stroke-dasharray:none;stroke-dashoffset:0.0611594;stroke-opacity:0.91003901"
       d="M 109.57712,64.947632 A 49.441995,31.241203 0 0 0 70.106839,77.402082 49.541326,65.711083 0 0 0 53.716097,73.667626 49.541326,65.711083 0 0 0 4.1743911,139.37847 a 49.541326,65.711083 0 0 0 49.5417059,65.71084 49.541326,65.711083 0 0 0 3.304089,-0.38069 31.936858,23.465615 0 0 0 26.767051,10.75233 31.936858,23.465615 0 0 0 4.221835,-0.20887 53.422444,59.306032 0 0 0 39.904858,20.20203 53.422444,59.306032 0 0 0 50.05225,-38.66919 17.237887,51.374423 0 0 0 14.19251,-50.47126 17.237887,51.374423 0 0 0 -17.2377,-51.374402 17.237887,51.374423 0 0 0 -0.76841,0.138527 26.254618,58.11991 0 0 0 -18.61431,-17.140369 26.254618,58.11991 0 0 0 -4.71378,1.026639 49.441995,31.241203 0 0 0 -41.24737,-14.016423 z"
       inkscape:export-filename="processes.pdf"
       inkscape:export-xdpi="96"
       inkscape:export-ydpi="96" /><path
       id="path4"
       style="fill:#bf7300;fill-opacity:0.108214;stroke:#f3a700;stroke-width:0.188046;stroke-dasharray:1.12827, 0.564137;stroke-dashoffset:0.0376091;stroke-opacity:0.910039"
       d="M 146.64531 98.031226 A 32.57967 18.986696 0 0 0 114.06539 117.01818 A 32.57967 18.986696 0 0 0 118.4553 126.40572 A 12.929823 26.6321 0.18701477 0 0 113.41892 147.2861 A 12.929823 26.6321 0.18701477 0 0 119.82111 170.31364 A 32.57967 18.986696 0 0 0 118.07755 176.3665 A 32.57967 18.986696 0 0 0 150.65747 195.35345 A 32.57967 18.986696 0 0 0 183.23688 176.3665 A 32.57967 18.986696 0 0 0 175.3123 164.04528 A 12.929823 26.6321 0.18701477 0 0 178.4227 155.54709 A 32.57967 18.986696 0 0 0 183.40431 145.60558 A 32.57967 18.986696 0 0 0 179.13687 136.30486 A 12.929823 26.6321 0.18701477 0 0 175.91484 125.30088 A 32.57967 18.986696 0 0 0 179.22472 117.01818 A 32.57967 18.986696 0 0 0 146.64531 98.031226 z " /><path
       id="path5"
       style="fill:#000ea2;fill-opacity:0.108214;stroke:#0060f3;stroke-width:0.224965;stroke-dasharray:1.34979, 0.674895;stroke-dashoffset:0.044993;stroke-opacity:0.910039"
       d="m 73.106706,85.651659 a 20.075325,14.315583 0 0 0 -2.876311,0.158647 20.075325,14.315583 0 0 0 -0.500744,0.07131 20.075325,14.315583 0 0 0 -2.331641,0.381889 20.075325,14.315583 0 0 0 -0.543636,0.131775 20.075325,14.315583 0 0 0 -2.207617,0.6196 20.075325,14.315583 0 0 0 -0.449585,0.15813 20.075325,14.315583 0 0 0 -2.179712,0.89762 20.075325,14.315583 0 0 0 -0.278536,0.132808 20.075325,14.315583 0 0 0 -2.218986,1.260388 20.075325,14.315583 0 0 0 -0.0016,0.001 20.075325,14.315583 0 0 0 -10.520288,-2.124418 20.075325,14.315583 0 0 0 -20.075261,14.315925 20.075325,14.315583 0 0 0 20.075261,14.3154 20.075325,14.315583 0 0 0 13.610022,-3.82664 20.075325,14.315583 0 0 0 2.41639,0.90744 20.075325,14.315583 0 0 0 0.03462,0.0119 20.075325,14.315583 0 0 0 2.549198,0.65732 20.075325,14.315583 0 0 0 0.04858,0.0119 20.075325,14.315583 0 0 0 2.639632,0.39997 20.075325,14.315583 0 0 0 0.06046,0.009 20.075325,14.315583 0 0 0 2.749703,0.14056 20.075325,14.315583 0 0 0 2.529561,-0.11834 20.075325,14.315583 0 0 0 0.208773,-0.0207 20.075325,14.315583 0 0 0 2.338358,-0.33177 20.075325,14.315583 0 0 0 0.206189,-0.0382 20.075325,14.315583 0 0 0 2.399337,-0.58084 20.075325,14.315583 0 0 0 5.17e-4,0 20.075325,14.315583 0 0 0 2.274796,-0.79995 20.075325,14.315583 0 0 0 0.178284,-0.0755 20.075325,14.315583 0 0 0 1.986959,-0.94671 20.075325,14.315583 0 0 0 0.164848,-0.0884 20.075325,14.315583 0 0 0 1.907377,-1.19269 20.075325,14.315583 0 0 0 5.17e-4,0 20.075325,14.315583 0 0 0 1.674316,-1.36219 20.075325,14.315583 0 0 0 0.120923,-0.11472 20.075325,14.315583 0 0 0 1.328084,-1.41645 20.075325,14.315583 0 0 0 0.106454,-0.12919 20.075325,14.315583 0 0 0 1.121895,-1.62161 20.075325,14.315583 0 0 0 0.814937,-1.71256 20.075325,14.315583 0 0 0 0.05219,-0.14521 20.075325,14.315583 0 0 0 0.466122,-1.67018 20.075325,14.315583 0 0 0 0.02842,-0.1447 20.075325,14.315583 0 0 0 0.166398,-1.806086 20.075325,14.315583 0 0 0 -0.241846,-2.192114 20.075325,14.315583 0 0 0 -0.02274,-0.0987 20.075325,14.315583 0 0 0 -0.706934,-2.09858 20.075325,14.315583 0 0 0 -0.02429,-0.05684 20.075325,14.315583 0 0 0 -1.177706,-2.027783 20.075325,14.315583 0 0 0 -0.04237,-0.05736 20.075325,14.315583 0 0 0 -1.581299,-1.840198 20.075325,14.315583 0 0 0 -0.07803,-0.077 20.075325,14.315583 0 0 0 -2.005045,-1.673799 20.075325,14.315583 0 0 0 -2.351278,-1.431954 20.075325,14.315583 0 0 0 -0.09974,-0.05116 20.075325,14.315583 0 0 0 -2.593124,-1.132747 20.075325,14.315583 0 0 0 -0.06511,-0.02481 20.075325,14.315583 0 0 0 -2.847372,-0.841292 20.075325,14.315583 0 0 0 -0.08733,-0.01912 20.075325,14.315583 0 0 0 -2.939355,-0.503328 20.075325,14.315583 0 0 0 -0.136426,-0.01602 20.075325,14.315583 0 0 0 -3.075264,-0.172599 z" /><path
       id="ellipse11"
       style="fill:#000ea2;fill-opacity:0.108214;stroke:#0060f3;stroke-width:0.205016;stroke-dasharray:1.2301, 0.61505;stroke-dashoffset:0.0410034;stroke-opacity:0.910039"
       d="M 161.29455 127.54467 A 17.705177 13.480958 0 0 0 144.44183 136.97717 A 17.705177 13.480958 0 0 0 142.71429 136.91154 A 17.705177 13.480958 0 0 0 125.00891 150.39237 A 17.705177 13.480958 0 0 0 142.71429 163.8732 A 17.705177 13.480958 0 0 0 159.57579 154.42055 A 17.705177 13.480958 0 0 0 161.29455 154.50633 A 17.705177 13.480958 0 0 0 178.99941 141.0255 A 17.705177 13.480958 0 0 0 161.29455 127.54467 z " /><path
       id="path11"
       style="fill:#414361;fill-opacity:0.108214;stroke:#001d48;stroke-width:0.186549;stroke-dasharray:1.11929, 0.559646;stroke-dashoffset:0.0373098;stroke-opacity:0.910039"
       d="M 116.13193 165.57542 A 25.194012 13.605622 0 0 0 102.3245 167.83472 A 14.669987 19.715937 0 0 0 97.0995 166.48234 A 14.669987 19.715937 0 0 0 82.429594 186.19794 A 14.669987 19.715937 0 0 0 97.0995 205.91405 A 14.669987 19.715937 0 0 0 108.17169 199.04005 A 25.194012 13.605622 0 0 0 123.49944 201.84763 A 25.194012 13.605622 0 0 0 147.85041 191.72215 A 25.194012 13.605622 0 0 0 152.38605 183.94123 A 25.194012 13.605622 0 0 0 136.8056 171.41073 A 25.194012 13.605622 0 0 0 116.13193 165.57542 z " /><path
       id="path12"
       style="fill:#7b2727;fill-opacity:0.108214;stroke:#f80000;stroke-width:0.177631;stroke-dasharray:1.06578, 0.532892;stroke-dashoffset:0.0355263;stroke-opacity:0.910039"
       d="M 48.140214 157.42915 A 26.018847 15.938283 0 0 0 22.121647 173.3672 A 26.018847 15.938283 0 0 0 48.140214 189.30576 A 26.018847 15.938283 0 0 0 52.889278 189.00448 A 27.6833 17.602646 0 0 0 79.068559 201.00065 A 27.6833 17.602646 0 0 0 106.75162 183.39811 A 27.6833 17.602646 0 0 0 79.068559 165.79556 A 27.6833 17.602646 0 0 0 71.590979 166.46322 A 26.018847 15.938283 0 0 0 48.140214 157.42915 z " /><g
       id="g11"
       transform="matrix(0.32043349,0,0,0.31704649,30.048061,92.133409)"><g
         id="g1"><circle
           cx="48"
           cy="40"
           fill="#b0e3e6"
           stroke="#0e8088"
           pointer-events="all"
           id="ellipse1"
           r="20" /></g><g
         id="g2"><circle
           cx="138"
           cy="20"
           fill="#b1ddf0"
           stroke="#10739e"
           pointer-events="all"
           id="ellipse2"
           r="20" /></g><g
         id="g3"><circle
           cx="20.5"
           cy="245"
           fill="#fad7ac"
           stroke="#b46504"
           pointer-events="all"
           id="ellipse3"
           r="20" /></g><g
         id="g4"><circle
           cx="198.5"
           cy="305"
           fill="#fad9d5"
           stroke="#ae4132"
           pointer-events="all"
           id="ellipse4"
           r="20" /></g><g
         id="g5"><circle
           cx="308"
           cy="90"
           fill="#dae8fc"
           stroke="#6c8ebf"
           pointer-events="all"
           id="ellipse5"
           r="20" /></g><g
         id="g6"><circle
           cx="328"
           cy="280"
           fill="#d5e8d4"
           stroke="#82b366"
           pointer-events="all"
           id="ellipse6"
           r="20" /></g><g
         id="g7"><circle
           cx="415"
           cy="155"
           fill="#fff2cc"
           stroke="#d6b656"
           pointer-events="all"
           id="ellipse7"
           r="20" /></g><g
         id="g8"><circle
           cx="128"
           cy="115"
           fill="#b1ddf0"
           stroke="#10739e"
           pointer-events="all"
           id="ellipse8"
           r="20" /></g><g
         id="g9"><circle
           cx="338"
           cy="190"
           fill="#fad7ac"
           stroke="#b46504"
           pointer-events="all"
           id="ellipse9"
           r="20" /></g><g
         id="g10"><circle
           cx="98"
           cy="270"
           fill="#fff2cc"
           stroke="#d6b656"
           pointer-events="all"
           id="ellipse10"
           r="20" /></g></g><path
       id="ellipse14"
       style="fill:#e2ea2f;fill-opacity:0.195853;stroke:#d5c200;stroke-width:0.190369;stroke-dasharray:1.14221, 0.571106;stroke-dashoffset:0.0380738;stroke-opacity:0.910039"
       d="M 124.25701 129.42104 A 30.732617 20.991255 0 0 0 100.7339 137.06088 A 20.82419 12.873028 0 0 0 89.305143 134.94732 A 20.82419 12.873028 0 0 0 71.385824 141.2782 A 20.82419 12.873028 0 0 0 64.668921 140.58677 A 20.82419 12.873028 0 0 0 43.844352 153.4604 A 20.82419 12.873028 0 0 0 43.920833 154.17974 A 20.822671 14.464965 0 0 0 38.897367 153.71568 A 20.822671 14.464965 0 0 0 18.075382 168.18095 A 20.822671 14.464965 0 0 0 27.029358 180.03139 A 24.324668 19.502982 0 0 0 26.993701 180.46495 A 24.324668 19.502982 0 0 0 51.318315 199.96816 A 24.324668 19.502982 0 0 0 64.337675 196.89599 A 32.029688 25.415229 0 0 0 93.092509 211.2393 A 32.029688 25.415229 0 0 0 124.74794 188.83705 A 20.82419 12.873028 0 0 0 129.24896 189.16623 A 20.82419 12.873028 0 0 0 150.07301 176.29312 A 20.82419 12.873028 0 0 0 143.26877 166.77948 A 30.732617 20.991255 0 0 0 154.98899 150.41252 A 30.732617 20.991255 0 0 0 124.25701 129.42104 z "
       inkscape:export-filename="ellipse14.pdf"
       inkscape:export-xdpi="96"
       inkscape:export-ydpi="96" /></g></svg>
